<?xml version="1.0" standalone="no"?> 
<!DOCTYPE svg PUBLIC "-//W3C//DTD SVG 1.1//EN" "http://www.w3.org/Graphics/SVG/1.1/DTD/svg11.dtd" >
<svg xmlns="http://www.w3.org/2000/svg">
<defs>
  <font id="website-icons" horiz-adv-x="600">
    <font-face font-family="website-icons"
      units-per-em="600" ascent="600"
      descent="0" />
    <missing-glyph horiz-adv-x="0" />
    <glyph glyph-name="arrow-l"
      unicode="&#xE001;"
      horiz-adv-x="600" d=" M485.6 126.6L385.6 26.6L112.1 300L385.6 573.5L487.9 471.2L314.5 300L485.6 126.6z" />
    <glyph glyph-name="arrow-r"
      unicode="&#xE002;"
      horiz-adv-x="600" d=" M285.5 300L112.1 471.2L214.4 573.5L487.9 300L214.4 26.5L114.4 126.5L285.5 300z" />
    <glyph glyph-name="calendar"
      unicode="&#xE003;"
      horiz-adv-x="600" d=" M136.3 121.5H203.1999999999999V188.4H136.3V121.5zM218.2000000000001 121.5H292.6V188.4H218.2000000000001V121.5zM136.3 203.3H203.1999999999999V277.7000000000001H136.3V203.3zM218.2000000000001 203.3H292.6V277.7000000000001H218.2000000000001V203.3zM136.3 292.6H203.1999999999999V359.5H136.3V292.6zM307.4 121.5H381.8V188.4H307.4V121.5zM218.2000000000001 292.6H292.6V359.5H218.2000000000001V292.6zM396.7 121.5H463.6V188.4H396.7000000000001V121.5zM307.4 203.3H381.8V277.7000000000001H307.4V203.3zM225.6 404.1V471C225.6 473 224.9 474.8 223.4 476.2C221.9 477.7 220.1999999999999 478.4 218.1999999999999 478.4H203.3C201.3 478.4 199.5 477.7 198.0999999999999 476.2C196.5999999999999 474.7 195.8999999999999 473 195.8999999999999 471V404.1C195.8999999999999 402.1 196.5999999999999 400.3 198.0999999999999 398.9C199.5999999999999 397.4 201.3 396.7 203.3 396.7H218.1999999999999C220.1999999999999 396.7 221.9999999999999 397.4 223.4 398.9C224.9 400.4 225.6 402.1 225.6 404.1zM396.7 203.3H463.6V277.7000000000001H396.7000000000001V203.3zM307.4 292.6H381.8V359.5H307.4V292.6zM396.7 292.6H463.6V359.5H396.7000000000001V292.6zM404.1 404.1V471C404.1 473 403.4000000000001 474.8 401.9000000000001 476.2C400.4000000000001 477.7 398.7000000000001 478.4 396.7000000000001 478.4H381.8000000000001C379.8000000000001 478.4 378.0000000000001 477.7 376.6 476.2C375.1 474.7 374.4 473 374.4 471V404.1C374.4 402.1 375.1 400.3 376.6 398.9C378.1 397.4 379.8000000000001 396.7 381.8 396.7H396.7C398.7 396.7 400.5 397.4 401.9 398.9C403.4 400.4 404.2 402.1 404.1 404.1zM493.4 419V121.5C493.4 113.4 490.5 106.5 484.6 100.6S471.7 91.8 463.7 91.8H136.4C128.3 91.8 121.4 94.7 115.5 100.6C109.6 106.5 106.7000000000001 113.5 106.7000000000001 121.5V419C106.7000000000001 427.1 109.6 434 115.5 439.9C121.4 445.8 128.4 448.7 136.4 448.7H166.1999999999999V471C166.1999999999999 481.2 169.8 490 177.0999999999999 497.3S193.0999999999999 508.2 203.3999999999999 508.2H218.2999999999999C228.4999999999999 508.2 237.2999999999999 504.6 244.5999999999998 497.3S255.4999999999998 481.3 255.4999999999998 471V448.7H344.7999999999998V471C344.7999999999998 481.2 348.3999999999998 490 355.6999999999997 497.3S371.6999999999997 508.2 381.9999999999997 508.2H396.8999999999997C407.0999999999997 508.2 415.8999999999997 504.6 423.1999999999997 497.3C430.4999999999997 490 434.0999999999997 481.3 434.0999999999997 471V448.7H463.8999999999997C471.9999999999997 448.7 478.8999999999997 445.8 484.7999999999997 439.9S493.4 427.1 493.4 419z" />
    <glyph glyph-name="close"
      unicode="&#xE004;"
      horiz-adv-x="600" d=" M553.8 502.5L502.5 553.8L300 351.3L97.5 553.8L46.2 502.5L248.7000000000001 300L46.2 97.5L97.5 46.2L300 248.7L502.5 46.2L553.8 97.5L351.3 300L553.8 502.5z" />
    <glyph glyph-name="dollar"
      unicode="&#xE005;"
      horiz-adv-x="400" d=" M334.5 216.7C334.5 156.8 289 110.8 231.3 101.4V51C231.3 45.8 227.3 41.8 222.0999999999999 41.8H183.1999999999999C178.1999999999999 41.8 173.9999999999999 46 173.9999999999999 51V101.4C152.9999999999999 104.3 132.1999999999999 110.8 113.1999999999999 120.4C97.4 128.3 79.5999999999999 139.2 68.1999999999999 153C64.9 157 64.6999999999999 161 67.5999999999999 164.8L97.3 203.7000000000001C98.5999999999999 205.6 100.8 206.8 103.9 207.2000000000001C106.8 207.6 109.1 206.7000000000001 110.8 204.6L111.4 204C133.1 185 156.5 173 181.5 168C213.3 161.1 260.2000000000001 171.3000000000001 261.6 211.1C262.2000000000001 228.4000000000001 249.3000000000001 241.3 235.2000000000001 249.1C220.3000000000001 257.4000000000001 204.6 263.9000000000001 188.7000000000001 270C162.1 280.9000000000001 135.2000000000001 291.3 112.1 308.9000000000001C86.8000000000001 328.2000000000001 72.3000000000001 357 72.2000000000001 388.8000000000001C72.2000000000001 446.4000000000001 120.7000000000001 487.0000000000001 174 497.2V549.1C174 554.1 178.2000000000001 558.3000000000001 183.2000000000001 558.3000000000001H222.1C227.3000000000001 558.3000000000001 231.3000000000001 554.3000000000001 231.3000000000001 549.1V498.4C263.5000000000001 495.0000000000001 298.8000000000001 482.2 322.1000000000001 458.9C325.4000000000001 455.4 325.9000000000001 451.8000000000001 323.5000000000001 447.9000000000001L300.1000000000001 405.8000000000001C298.6000000000001 402.9000000000001 296.4000000000001 401.4000000000001 293.5000000000001 401.2000000000001C290.8000000000001 400.6 288.2000000000001 401.3000000000001 285.7000000000001 403.2000000000001C270.3000000000001 418.6 245.5 428.8000000000001 224.5 432.7000000000001C202.1 436.9000000000001 175 434.0000000000001 157.6 417.8000000000001C149.7000000000001 410.5000000000001 145.3000000000001 400.7000000000001 145.3000000000001 389.9000000000001C145.3000000000001 376.3000000000001 152.1 367.3000000000001 162.1 358.9000000000001C178.8000000000001 344.9000000000001 201.2000000000001 337.6 221.4 329.9000000000001C245.8 320.7000000000001 271.5 311.3000000000001 292.5 295.5000000000001C304.5 286.5000000000001 316.1 276.3000000000001 323.1 262.9000000000001C330.6 248.7 334.5 232.7 334.5 216.7L334.5 216.7z" />
    <glyph glyph-name="down-arrow"
      unicode="&#xE006;"
      horiz-adv-x="600" d=" M565.4 273.6H406.1V591.9H193.9V273.6H34.6L300.1 8.0999999999999L565.4 273.6z" />
    <glyph glyph-name="download"
      unicode="&#xE007;"
      horiz-adv-x="600" d=" M432.6 379.5H353V538.6H246.9V379.5H167.3L300 246.8C300 246.8 432.6 379.5 432.6 379.5zM547.6 206.2C542 212.1 504.9 251.9 494.3 262.3C487.3 269.2 477.2 273.4 466.7 273.4H420.1L501.4 194H407.4C404.7 194 402.2 192.6 401 190.5L379.4 140.8H220.7000000000001L199.1 190.5C197.9 192.5999999999999 195.4 194 192.7000000000001 194H98.7000000000001L179.9000000000001 273.4H133.3000000000001C122.8000000000001 273.4 112.7000000000001 269.2 105.7000000000001 262.3C95.1 251.9 57.9000000000001 212.1999999999999 52.4000000000001 206.1999999999999C39.4000000000001 192.4 32.3000000000001 181.4 35.7 167.8L50.6 86.3C54 72.6999999999999 68.9 61.5 83.8000000000001 61.5H516.4000000000001C531.3000000000001 61.5 546.2 72.6999999999999 549.6000000000001 86.3L564.5 167.8C567.7 181.4 560.6 192.4 547.6 206.2z" />
    <glyph glyph-name="facebook"
      unicode="&#xE008;"
      horiz-adv-x="600" d=" M430.8 548.3V468.3H383.3C365.9 468.3 354.2 464.7 348.2 457.4S339.0999999999999 439.2000000000001 339.0999999999999 424.7000000000001V367.5H427.7999999999999L415.9999999999999 277.9H339.0999999999999V48H246.3999999999999V277.9H169.1999999999998V367.5H246.3999999999999V433.5C246.3999999999999 471.1 256.8999999999999 500.2 277.8999999999999 520.9S326.8999999999999 552 361.7999999999999 552C391.5 552 414.5 550.8 430.8 548.3L430.8 548.3z" />
    <glyph glyph-name="file-pdf-o"
      unicode="&#xE009;"
      horiz-adv-x="600" d=" M507.1 452.7C512.6 447.2 517.4000000000001 439.7 521.3 430.2C525.2 420.7 527.2 412.1 527.2 404.2V63.3C527.2 55.4000000000001 524.4 48.7 518.9 43.2C513.4 37.7 506.7 34.9 498.8 34.9H101.0999999999999C93.1999999999999 34.9 86.4999999999999 37.7 80.9999999999999 43.2C75.4999999999999 48.7 72.6999999999999 55.4 72.6999999999999 63.3V536.7C72.6999999999999 544.6 75.4999999999999 551.3 80.9999999999999 556.8C86.4999999999999 562.3 93.1999999999999 565.1 101.0999999999999 565.1H366.2C374.0999999999999 565.1 382.8 563.1 392.2 559.2C401.7 555.2 409.2 550.5 414.7 545L507.1 452.7zM375.7000000000001 524.9V413.6H487C485 419.3 482.9 423.4 480.5 425.7L387.9 518.3C385.5 520.8 381.5 522.9 375.7000000000001 524.9L375.7000000000001 524.9zM489.4 72.8V375.8H366.3C358.4 375.8 351.7 378.6 346.2 384.1C340.7 389.6 337.9 396.3 337.9 404.2000000000001V527.3H110.7000000000001V72.8H489.4zM337.3 248.2C343.8 243.1 352.0999999999999 237.6 362.0999999999999 231.6C373.7 233 385.2999999999999 233.7 396.7 233.7C425.7 233.7 443.2 228.9 449.0999999999999 219.2C452.2999999999999 214.9 452.4999999999999 209.7 449.7 203.8C449.7 203.6 449.5999999999999 203.4 449.3999999999999 203.2L448.7999999999999 202.6V202.3C447.5999999999999 194.8 440.5999999999999 191.1 427.7999999999999 191.1C418.2999999999999 191.1 406.9999999999999 193.1 393.7999999999999 197C380.5999999999999 201 367.8 206.2 355.3 212.7C311.7 208 273 199.8 239.3 188.1C209.0999999999999 136.4 185.1999999999999 110.6 167.6999999999999 110.6C164.6999999999999 110.6 161.9999999999999 111.3 159.4 112.7000000000001L152.3 116.2000000000001C152.0999999999999 116.4 151.5 116.9 150.5 117.7000000000001C148.5 119.7000000000001 147.9 123.2000000000001 148.7000000000001 128.3000000000001C150.5 136.2000000000001 156 145.2000000000001 165.3000000000001 155.4000000000001C174.6 165.6 187.6 175.1 204.4000000000001 184.0000000000001C207.2000000000001 185.8000000000001 209.4000000000001 185.2000000000001 211.2000000000001 182.2000000000001C211.6 181.8000000000001 211.8000000000001 181.4 211.8000000000001 181.0000000000001C222.1 197.8000000000001 232.6 217.2000000000001 243.5000000000001 239.3000000000001C256.9000000000001 266.1000000000001 267.2000000000002 292.0000000000001 274.3000000000001 316.8000000000001C269.6 333.0000000000001 266.6 348.7000000000001 265.3000000000001 364.0000000000001C264.0000000000001 379.3000000000001 264.7000000000001 391.9000000000001 267.2000000000001 401.7000000000001C269.4000000000001 409.6000000000001 273.5 413.5000000000001 279.6 413.5000000000001H286.1C290.6 413.5000000000001 294.1 412.0000000000001 296.5 409.1000000000001C300 405.0000000000001 300.9 398.3000000000001 299.2000000000001 389.0000000000001C298.8000000000001 387.8000000000001 298.4000000000001 387.0000000000001 298 386.6000000000001C298.2000000000001 386.0000000000001 298.3 385.2000000000001 298.3 384.2000000000001V375.3000000000001C297.9 351.0000000000001 296.5 332.1000000000001 294.2 318.5000000000001C304.9 286.3 319.3 262.8 337.3 248.2L337.3 248.2zM166.9 126.6C177.1999999999999 131.3 190.6999999999999 146.9 207.4 173.4C197.3 165.5 188.6999999999999 157.2000000000001 181.5 148.5000000000001C174.3 139.8 169.4 132.5 166.9 126.6L166.9 126.6zM284.6 398.8C281.6 390.5 281.5 377.5 284 359.7C284.2000000000001 361.1 284.9 365.4 286.1 372.7C286.1 373.3 286.8000000000001 377.5 288.2000000000001 385.4C288.4000000000001 386.2 288.8000000000001 387 289.4000000000001 387.8C289.2000000000001 388 289.1000000000002 388.2 289.1000000000002 388.4S289.0000000000001 388.7 288.9000000000001 388.8C288.8000000000001 388.9 288.7000000000001 389 288.7000000000001 389.2C288.5 393.5 287.2000000000001 397.1 284.9000000000001 399.8C284.9000000000001 399.6 284.8000000000001 399.4 284.6000000000002 399.2L284.6 398.8L284.6 398.8zM247.9 203.3C274.5 214 302.5 221.9 331.9 227.3C331.5 227.5 330.2 228.4 328.1 230.1C325.9 231.8 324.4 233.1 323.4 234.1C308.4 247.3 295.9 264.7000000000001 285.8 286.2000000000001C280.5 269.2000000000001 272.3 249.8 261.2 227.9000000000001C255.3 216.8 250.9 208.6 247.9 203.3L247.9 203.3zM439.1 208C434.4000000000001 212.7 420.6 215.1 397.7000000000001 215.1C412.7000000000001 209.6 424.9000000000001 206.8 434.4000000000001 206.8C437.2000000000001 206.8 438.9000000000001 206.9 439.7000000000001 207.1C439.6 207.3 439.4 207.6 439.1 208L439.1 208z" />
    <glyph glyph-name="file-word-o"
      unicode="&#xE00A;"
      horiz-adv-x="600" d=" M509.7 454.6C515.3 449 520.0999999999999 441.4 524.0999999999999 431.8C528.0999999999999 422.2 530.0999999999999 413.4 530.0999999999999 405.4V60.3C530.0999999999999 52.3 527.3 45.5 521.7 39.9C516.0999999999999 34.3 509.3 31.5 501.3 31.5H98.7000000000001C90.7000000000001 31.5 83.9000000000001 34.3 78.3000000000001 39.9C72.7000000000001 45.5 69.9000000000001 52.3 69.9000000000001 60.3V539.5999999999999C69.9000000000001 547.5999999999999 72.7000000000001 554.4 78.3000000000001 560C83.9000000000001 565.5999999999999 90.7000000000001 568.4 98.7000000000001 568.4H367.1C375.1 568.4 383.9000000000001 566.4 393.5 562.4C403.1 558.4 410.7 553.5999999999999 416.3 548L509.7 454.6zM376.7000000000001 527.7V415.1H489.3000000000001C487.3000000000001 420.9 485.1000000000001 425 482.7 427.4L388.9000000000001 521.2C386.6 523.5 382.5 525.7 376.7000000000001 527.7L376.7000000000001 527.7zM491.7 70V376.7H367.1C359.1 376.7 352.3000000000001 379.5 346.7000000000001 385.1S338.3000000000001 397.5 338.3000000000001 405.5V530.1H108.2000000000001V70H491.7zM139.7000000000001 338.4V306.3H160.7000000000001L209.8000000000001 108.3H257.4000000000001L295.7000000000001 253.6C297.1 257.6 298.1 262.2000000000001 298.7000000000001 267.4000000000001C299.1 270.6 299.3000000000001 273 299.3000000000001 274.6H300.5000000000001L301.4000000000001 267.4000000000001C301.6000000000002 266.8000000000001 302.0000000000001 264.8000000000001 302.5000000000001 261.4000000000001C303.0000000000001 258 303.5000000000001 255.4000000000001 304.1000000000002 253.6L342.4000000000001 108.3H390.0000000000001L439.1000000000002 306.3H460.1000000000001V338.4H370.2000000000002V306.3H397.2000000000002L367.5000000000001 175.1C366.5000000000001 171.1 365.8000000000001 166.5 365.4000000000001 161.3L364.8000000000001 155H363.6L362.7000000000001 161.3C362.5 162.3 362.1 164.4 361.5 167.6C360.9 170.8 360.4 173.3 360 175.1L317 338.4H282.9L239.8 175.1C239.4 173.3 239 170.9 238.5 167.8C238 164.7 237.7000000000001 162.6 237.4 161.4L236.2 155.1H234.9999999999999L234.3999999999999 161.4C233.9999999999999 166.6 233.2999999999999 171.2 232.2999999999999 175.2L202.5999999999998 306.4H229.5999999999998V338.4L139.7000000000001 338.4L139.7000000000001 338.4z" />
    <glyph glyph-name="google-plus"
      unicode="&#xE00B;"
      horiz-adv-x="600" d=" M274.5 310.4C274.5 303.4 277.6 296.6 283.8 290C290 283.3 297.5 276.8 306.3 270.3C315.0999999999999 263.8 323.8 256.7000000000001 332.5 249C341.2000000000001 241.3 348.6 231.2 354.8 218.8S364.0999999999999 192.7000000000001 364.0999999999999 177.6C364.0999999999999 160.2000000000001 359.4999999999999 143.5 350.2 127.4C336.3 103.8 315.9 86.5 288.9999999999999 75.4000000000001C262.0999999999999 64.3 233.2999999999999 58.7000000000001 202.5999999999999 58.7000000000001C177.0999999999999 58.7000000000001 153.3 62.7000000000001 131.0999999999999 70.7000000000001S92.3999999999999 92.0000000000001 81.3999999999999 110.6C74.2999999999998 122.2000000000001 70.6999999999998 134.9 70.6999999999998 148.6C70.6999999999998 164.3 74.9999999999998 178.8 83.5999999999998 192.1C92.1999999999998 205.4 103.6999999999998 216.5 117.9999999999998 225.4000000000001C143.2999999999997 241.2000000000001 182.3999999999998 250.9000000000001 235.0999999999998 254.4000000000001C228.8999999999998 262.5 224.2999999999999 269.7000000000001 221.2999999999999 275.8000000000001C218.2999999999999 282 216.7999999999999 289.0000000000001 216.7999999999999 297.0000000000001C216.7999999999999 304.0000000000001 218.7999999999999 312.2000000000001 222.8999999999999 321.6C213.9999999999999 320.8000000000001 207.3999999999999 320.4000000000001 203.1999999999998 320.4000000000001C174.5999999999998 320.4000000000001 150.4999999999998 329.7000000000001 130.8999999999999 348.4000000000001S101.4999999999999 390.7000000000001 101.4999999999999 419.3000000000001C101.4999999999999 435.1 104.9999999999999 450.5000000000001 111.8999999999999 465.4000000000001S128.3999999999999 492.9000000000001 140.5999999999999 503.4000000000001C155.4999999999999 516.2 173.0999999999999 525.6 193.4999999999999 531.8000000000001C213.8999999999999 538.0000000000001 234.8999999999999 541.1000000000001 256.4999999999999 541.1000000000001H377.7L337.7 515.6000000000001H299.7C313.9999999999999 503.4000000000001 324.8 490.6000000000001 332.2 477.0000000000001C339.4999999999999 463.5000000000001 343.2 448.0000000000001 343.2 430.6000000000001C343.2 416.7000000000001 340.8 404.2000000000001 336.0999999999999 393.1000000000001C331.3999999999999 382.0000000000001 325.7 373.0000000000001 318.9999999999999 366.1000000000001S305.5999999999999 353.0000000000001 298.8999999999999 347.2000000000001C292.0999999999999 341.5000000000001 286.3999999999999 335.6000000000001 281.5999999999999 329.4000000000001C276.8 323.4 274.5 317 274.5 310.4L274.5 310.4zM232.2000000000001 338.2C239.5 338.2 247.1 339.8 254.8000000000001 343C262.5000000000001 346.2 268.9000000000001 350.4 273.9000000000001 355.6C284.1000000000002 366.6 289.3000000000001 382 289.3000000000001 401.7C289.3000000000001 412.9 287.7000000000001 425 284.4000000000001 437.9C281.1000000000002 450.9 276.4000000000001 463.4 270.3000000000001 475.4C264.2000000000001 487.5 256.1 497.5 245.8000000000001 505.4S224.3000000000001 517.3 211.9000000000001 517.3C203.8000000000001 517.3 195.8000000000001 515.4 188.0000000000001 511.6C180.2000000000002 507.8 173.8000000000001 502.8 169.0000000000001 496.4C159.9000000000001 485 155.4000000000001 469.5 155.4000000000001 450C155.4000000000001 441.1 156.4000000000001 431.7000000000001 158.3000000000001 421.7000000000001S163.3000000000001 401.8 167.4000000000001 391.8C171.6000000000001 381.8 176.6000000000001 372.9 182.5000000000001 365S195.6000000000001 350.6 204.2000000000002 345.6C212.8 340.8 222.1 338.3 232.2000000000001 338.2L232.2000000000001 338.2zM232.7000000000001 85.2000000000001C243.9000000000001 85.2000000000001 254.7000000000001 86.5 265 89S284.9 95.3 293.7000000000001 100.3C302.5 105.3 309.6 112.4 314.9000000000001 121.5C320.2000000000001 130.6 322.9000000000001 141.1 322.9000000000001 153.1C322.9000000000001 157.9 322.2000000000001 162.7000000000001 320.9000000000001 167.3C319.6000000000002 171.9 318.1000000000002 176 316.7000000000001 179.5C315.2000000000001 183 312.6 187 308.9000000000001 191.5C305.1000000000002 196 302.3000000000001 199.4 300.3000000000001 201.6C298.4000000000001 203.8 294.6 207.2 289.1 211.6C283.6 216 280.1 218.8 278.5 220S272.9 224.1 266.5 228.7C260 233.3 256.5 235.8 255.9 236.2C252.8 236.6 248.2 236.8 242 236.8C231.8 236.8 221.6 236.1 211.6 234.8C201.5 233.5 191.2000000000001 231 180.4 227.5C169.6999999999999 224 160.3 219.6 152.3 214.1999999999999C144.3 208.8 137.6999999999999 201.6 132.4 192.6C127.1999999999999 183.6 124.6 173.4 124.6 162C124.6 148.5 128 136.5 134.7000000000001 126.2C141.5 115.9 150.3000000000001 107.8 161.2000000000001 102.1S183.6 92.1 195.7000000000001 89.3S220.2000000000001 85.1 232.7000000000001 85.2000000000001L232.7000000000001 85.2000000000001zM467.6 339.1H529.3V307.8H467.6V244.3H437.2000000000001V307.8H375.7000000000001V339.1H437.2000000000001V402H467.6C467.6 402 467.6 339.1 467.6 339.1z" />
    <glyph glyph-name="googleplus"
      unicode="&#xE00C;"
      horiz-adv-x="600" d=" M101.1 134.2C101.1 115.9 115.9 101 134.3000000000001 101H266.9000000000001V34.7H101.1000000000001C64.5000000000001 34.7 34.8000000000002 64.4 34.8000000000002 101V266.8H101.1000000000001V134.2zM101.1 465.8V333.2H34.8000000000001V498.9C34.8000000000001 535.5 64.5000000000001 565.2 101.1 565.2H266.9000000000001V498.9H134.3000000000001C115.9 498.9 101.1 484.1 101.1 465.8zM333.2000000000001 167.4H266.9000000000001V266.9H167.4000000000001V333.2H266.9000000000001V432.7H333.2000000000001V333.2H432.7000000000001V266.9H333.2000000000001V167.4zM498.9 565.2C535.5 565.2 565.2 535.5 565.2 498.9V333.2H498.9V465.8C498.9 484.1 484.1 499 465.7 499H333.1V565.3H498.9zM498.9 134.2V266.8H565.2V101C565.2 64.4 535.5 34.7 498.9 34.7H333.0999999999999V101H465.6999999999999C484.1 101.1 498.9 115.9 498.9 134.2z" />
    <glyph glyph-name="grid"
      unicode="&#xE00D;"
      horiz-adv-x="600" d=" M368.3 177V76.1C368.3 71.5 366.6 67.6 363.3 64.3000000000001C360 61.0000000000001 356 59.3000000000001 351.5 59.3000000000001H250.6C246 59.3000000000001 242.1 61.0000000000001 238.8 64.3000000000001C235.5 67.6 233.8 71.6 233.8 76.1V177C233.8 181.6 235.5 185.5 238.8 188.8C242.1 192.1 246.1 193.8 250.6 193.8H351.5C356.1 193.8 360 192.1 363.3000000000001 188.8C366.6 185.5 368.3 181.6 368.3 177M368.3 350.5V249.6C368.3 245 366.6 241.1 363.3 237.8C360 234.5 356 232.8 351.5 232.8H250.6C246 232.8 242.1 234.5 238.8 237.8C235.5 241.1 233.8 245.1 233.8 249.6V350.5C233.8 355.1 235.5 359 238.8 362.3C242.1 365.6 246.1 367.3 250.6 367.3H351.5C356.1 367.3 360 365.6 363.3000000000001 362.3C366.6 359 368.3 355 368.3 350.5M368.3 523.9V423C368.3 418.4 366.6 414.5 363.3 411.2C360 407.9 356 406.2 351.5 406.2H250.6C246 406.2 242.1 407.9 238.8 411.2C235.5 414.5 233.8 418.5 233.8 423V523.9C233.8 528.5 235.5 532.4 238.8 535.7C242.1 539 246.1 540.7 250.6 540.7H351.5C356.1 540.7 360 539 363.3000000000001 535.7C366.6 532.4 368.3 528.5 368.3 523.9z M198.6 177V76.1C198.6 71.5 196.9 67.6 193.6 64.3000000000001C190.3 61.0000000000001 186.3 59.3000000000001 181.8 59.3000000000001H80.9C76.3 59.3000000000001 72.4 61.0000000000001 69.1 64.3000000000001C65.8 67.6 64.0999999999999 71.6 64.0999999999999 76.1V177C64.0999999999999 181.6 65.7999999999999 185.5 69.0999999999999 188.8C72.3999999999999 192.1 76.3999999999999 193.8 80.8999999999999 193.8H181.8C186.4 193.8 190.3 192.1 193.6 188.8C197 185.5 198.6 181.6 198.6 177M198.6 350.5V249.6C198.6 245 196.9 241.1 193.6 237.8C190.3 234.5 186.3 232.8 181.8 232.8H80.9C76.3 232.8 72.4 234.5 69.1 237.8C65.8 241.1 64.0999999999999 245.1 64.0999999999999 249.6V350.5C64.0999999999999 355.1 65.7999999999999 359 69.0999999999999 362.3C72.3999999999999 365.6 76.3999999999999 367.3 80.8999999999999 367.3H181.8C186.4 367.3 190.3 365.6 193.6 362.3C197 359 198.6 355 198.6 350.5M198.6 523.9V423C198.6 418.4 196.9 414.5 193.6 411.2C190.3 407.9 186.3 406.2 181.8 406.2H80.9C76.3 406.2 72.4 407.9 69.1 411.2C65.8 414.5 64.0999999999999 418.5 64.0999999999999 423V523.9C64.0999999999999 528.5 65.7999999999999 532.4 69.0999999999999 535.7C72.3999999999999 539 76.3999999999999 540.7 80.8999999999999 540.7H181.8C186.4 540.7 190.3 539 193.6 535.7C197 532.4 198.6 528.5 198.6 523.9z M536 177V76.1C536 71.5 534.3 67.6 531 64.3000000000001C527.7 61.0000000000001 523.7 59.3000000000001 519.2 59.3000000000001H418.3C413.7000000000001 59.3000000000001 409.8 61.0000000000001 406.5 64.3000000000001C403.2 67.6 401.5 71.6 401.5 76.1V177C401.5 181.6 403.2 185.5 406.5 188.8C409.8 192.1 413.8 193.8 418.3 193.8H519.2C523.8000000000001 193.8 527.7 192.1 531 188.8C534.3 185.5 536 181.6 536 177M536 350.5V249.6C536 245 534.3 241.1 531 237.8C527.7 234.5 523.7 232.8 519.2 232.8H418.3C413.7000000000001 232.8 409.8 234.5 406.5 237.8C403.2 241.1 401.5 245.1 401.5 249.6V350.5C401.5 355.1 403.2 359 406.5 362.3C409.8 365.6 413.8 367.3 418.3 367.3H519.2C523.8000000000001 367.3 527.7 365.6 531 362.3C534.3 359 536 355 536 350.5M536 523.9V423C536 418.4 534.3 414.5 531 411.2C527.7 407.9 523.7 406.2 519.2 406.2H418.3C413.7000000000001 406.2 409.8 407.9 406.5 411.2C403.2 414.5 401.5 418.5 401.5 423V523.9C401.5 528.5 403.2 532.4 406.5 535.7C409.8 539 413.8 540.7 418.3 540.7H519.2C523.8000000000001 540.7 527.7 539 531 535.7C534.3 532.4 536 528.5 536 523.9z" />
    <glyph glyph-name="home"
      unicode="&#xE00E;"
      horiz-adv-x="600" d=" M508.7 264.7V90.8C508.7 84.5 506.4 79.0999999999999 501.8 74.5C497.2 69.9 491.8 67.6 485.5 67.6H346.3V206.7H253.5V67.5H114.3C108 67.5 102.6 69.8 98 74.4C93.4 79 91.1 84.4 91.1 90.6999999999999V264.7C91.1 264.9 91.2000000000001 265.3 91.3 265.8C91.4 266.3 91.5 266.6 91.5 266.9000000000001L300 438.6L508.4 266.8C508.6 266.4 508.7 265.7 508.7 264.7zM589.6 289.7L567.1 262.9C565.2 260.7 562.6 259.4 559.5 258.9H558.4C555.3 258.9 552.7 259.7 550.8 261.4L300 470.5L49.2 261.4C46.3000000000001 259.5 43.4000000000001 258.6 40.5 258.9C37.4 259.4 34.8 260.7 32.9 262.9L10.4 289.7C8.5 292.1 7.6 294.9 7.9 298.2C8.1 301.5 9.5 304.1 11.9 306L272.4 523.1C280.1 529.4 289.3 532.5 300 532.5S319.8 529.4 327.6 523.1L416 449.2V519.9C416 523.3 417.1 526.0999999999999 419.3 528.2C421.5 530.4 424.3 531.5 427.6 531.5H497.2C500.6 531.5 503.4 530.4 505.5 528.2C507.7 526 508.8 523.2 508.8 519.9V372L588.2 306C590.6 304.1 591.9 301.5 592.2 298.2C592.3 295 591.5 292.1 589.6 289.7L589.6 289.7z" />
    <glyph glyph-name="images"
      unicode="&#xE00F;"
      horiz-adv-x="600" d=" M121.9 319.8C121.9 341.7 139.6 359.4000000000001 161.5 359.4000000000001C183.4 359.4000000000001 201.1 341.7000000000001 201.1 319.8C201.1 297.9000000000001 183.4 280.2 161.5 280.2C139.6 280.2 121.9 297.9 121.9 319.8zM300.1 300L201.1 201L161.5 240.6L82.3 161.4H438.7L300.1 300zM478.3 438.6H42.6999999999999C20.8 438.6 3.0999999999999 420.9000000000001 3.0999999999999 399V121.8C3.0999999999999 99.9 20.8 82.1999999999999 42.6999999999999 82.1999999999999H478.3C500.1999999999999 82.1999999999999 517.9 99.9 517.9 121.8V399C517.9 420.9 500.2 438.6 478.3 438.6zM478.3 121.8H42.6999999999999V399H478.3V121.8zM557.5 517.8H121.9C100 517.8 82.3 500.1 82.3 478.2H557.5V161.4C579.4 161.4 597.1 179.1 597.1 201V478.2C597.1 500 579.4 517.8 557.5 517.8L557.5 517.8z" />
    <glyph glyph-name="info-with-circle"
      unicode="&#xE010;"
      horiz-adv-x="600" d=" M300 568.5C151.7 568.5 31.5 448.3 31.5 300C31.5 151.7000000000001 151.7 31.5 300 31.5C448.3 31.5 568.5 151.7000000000001 568.5 300C568.5 448.3 448.3 568.5 300 568.5zM325.1 471.6C351.3 471.6 359 456.4 359 439C359 417.3 341.7 397.3 312 397.3C287.2 397.3 275.4 409.7 276.1 430.4000000000001C276.1 447.7 290.6 471.6 325.1 471.6L325.1 471.6zM258 139.2000000000001C240.1 139.2000000000001 227 150.1 239.5 197.8000000000001L260 282.4000000000001C263.6 295.9000000000001 264.1 301.4000000000001 260 301.4000000000001C254.7 301.4000000000001 231.4 292.1000000000001 217.7 282.8000000000001L208.8 297.4000000000001C252.3 333.7000000000001 302.3 355.0000000000001 323.7000000000001 355.0000000000001C341.6 355.0000000000001 344.6 333.9000000000001 335.6 301.3000000000002L312.1 212.4000000000001C307.9000000000001 196.7000000000001 309.7000000000001 191.3000000000001 313.9000000000001 191.3000000000001C319.3 191.3000000000001 336.8000000000001 197.8000000000001 354.1 211.4000000000001L364.2000000000001 197.8000000000001C322 155.5 275.9 139.2000000000001 258 139.2000000000001z" />
    <glyph glyph-name="instagram"
      unicode="&#xE011;"
      horiz-adv-x="600" d=" M485.7 134.3V336.9H443.5C447.7 323.8 449.8 310.1 449.8 295.9C449.8 269.6 443.1 245.4 429.8 223.2C416.5 201 398.3 183.4 375.4 170.5C352.5 157.6 327.5 151.1 300.4 151.1C259.3 151.1 224.2 165.2000000000001 195.1 193.5C165.9 221.7 151.3 255.9 151.3 295.9C151.3 310.1 153.4 323.7 157.6 336.9H113.5V134.3C113.5 128.9 115.3 124.4 119 120.6999999999999C122.6 116.9999999999999 127.1999999999999 115.1999999999999 132.6 115.1999999999999H466.8C471.9999999999999 115.1999999999999 476.4999999999999 116.9999999999999 480.1999999999999 120.6999999999999C483.8 124.4 485.7 128.9 485.7 134.3L485.7 134.3zM396.9 300.9C396.9 326.7 387.5 348.8 368.6 367C349.7 385.2 327 394.4 300.3 394.3C273.8 394.3 251.2 385.2 232.3 367C213.4 348.8 204 326.7 204 300.9C204 275.1 213.4 253 232.3 234.8S273.8 207.5 300.3 207.5C327 207.5 349.7000000000001 216.6 368.6 234.8C387.5 253.1 396.9 275.1 396.9 300.9zM485.7 413.5V465C485.7 470.8 483.6 475.9 479.4 480.2C475.2 484.5 470.1 486.6 464.1 486.6H409.7000000000001C403.7000000000001 486.6 398.6 484.5 394.4 480.2C390.2000000000001 475.9 388.1 470.9 388.1 465V413.4C388.1 407.4 390.2 402.3 394.4 398.1C398.6 393.9 403.7000000000001 391.8 409.7000000000001 391.8H464.1C470.1 391.8 475.2 393.9 479.4 398.1C483.6 402.3 485.7 407.4 485.7 413.5zM540.1 478.5V121.5C540.1 104.6 534.1 90.1 522 78S495.4 59.9 478.5 59.9H121.5C104.6 59.9 90.1 65.9 78 78C65.9 90.1 59.9 104.6 59.9 121.5V478.5C59.9 495.4 65.9 509.9 78 522C90.1 534.1 104.6 540.1 121.5 540.1H478.5C495.4 540.1 509.9 534.1 522 522C534 509.9 540.1 495.4 540.1 478.5z" />
    <glyph glyph-name="list"
      unicode="&#xE012;"
      horiz-adv-x="600" d=" M108 157V99.4C108 96.8 107.1 94.5 105.2 92.6C103.3 90.7000000000001 101.1 89.7000000000001 98.4 89.8000000000001H40.8C38.1999999999999 89.8000000000001 35.9 90.7000000000001 34 92.6C32.1 94.5 31.1 96.7000000000001 31.2 99.4V157C31.2 159.6 32.1 161.9 34 163.8S38.1 166.6999999999999 40.8 166.5999999999999H98.4C101 166.5999999999999 103.3 165.6999999999999 105.2 163.8C107.1 161.9 108 159.6 108 157zM108 272.2V214.6C108 212 107.1 209.7 105.2 207.8C103.3 205.9 101.1 204.9 98.4 205H40.8C38.1999999999999 205 35.9 205.8999999999999 34 207.8C32.1 209.6999999999999 31.1 211.9 31.2 214.6V272.2C31.2 274.8 32.1 277.1 34 279C35.9 280.9 38.1 281.9 40.8 281.8H98.4C101 281.8 103.3 280.9000000000001 105.2 279C107.1 277.1 108 274.8 108 272.2zM108 387.4V329.8C108 327.2 107.1 324.9 105.2 323C103.3 321.1 101.1 320.1 98.4 320.2H40.8C38.1999999999999 320.2 35.9 321.0999999999999 34 323S31.1 327.1 31.2 329.8V387.4C31.2 390 32.1 392.3 34 394.2C35.9 396.1 38.1 397.1 40.8 397H98.4C101 397 103.3 396.1 105.2 394.2C107.1 392.3 108 390 108 387.4zM568.8 157V99.4C568.8 96.8 567.9 94.5 566 92.6S561.9 89.7000000000001 559.2 89.8000000000001H156C153.4 89.8000000000001 151.1 90.7000000000001 149.2 92.6C147.3 94.5 146.3 96.7000000000001 146.4 99.4V157C146.4 159.6 147.3 161.9 149.2 163.8C151.1 165.6999999999999 153.3 166.6999999999999 156 166.5999999999999H559.2C561.8 166.5999999999999 564.1 165.6999999999999 566 163.8C567.9 161.9 568.8 159.6 568.8 157zM108 502.6V445C108 442.4 107.1 440.1 105.2 438.2C103.3 436.3 101.1 435.3 98.4 435.4H40.8C38.1999999999999 435.4 35.9 436.3 34 438.2C32.1 440.1 31.1 442.3 31.2 445V502.6C31.2 505.2 32.1 507.5 34 509.4C35.9 511.3 38.1 512.3 40.8 512.2H98.4C101 512.2 103.3 511.3 105.2 509.4C107.1 507.5 108 505.2 108 502.6zM568.8 272.2V214.6C568.8 212 567.9 209.7 566 207.8S561.9 204.9 559.2 205H156C153.4 205 151.1 205.8999999999999 149.2 207.8C147.3 209.6999999999999 146.3 211.9 146.4 214.6V272.2C146.4 274.8 147.3 277.1 149.2 279C151.1 280.9 153.3 281.9 156 281.8H559.2C561.8 281.8 564.1 280.9000000000001 566 279C567.9 277.1 568.8 274.8 568.8 272.2zM568.8 387.4V329.8C568.8 327.2 567.9 324.9 566 323C564.1 321.1 561.9 320.1 559.2 320.2H156C153.4 320.2 151.1 321.0999999999999 149.2 323C147.3 324.8999999999999 146.3 327.1 146.4 329.8V387.4C146.4 390 147.3 392.3 149.2 394.2C151.1 396.1 153.3 397.1 156 397H559.2C561.8 397 564.1 396.1 566 394.2C567.9 392.3 568.8 390 568.8 387.4zM568.8 502.6V445C568.8 442.4 567.9 440.1 566 438.2S561.9 435.3 559.2 435.4H156C153.4 435.4 151.1 436.3 149.2 438.2C147.3 440.1 146.3 442.3 146.4 445V502.6C146.4 505.2 147.3 507.5 149.2 509.4C151.1 511.3 153.3 512.3 156 512.2H559.2C561.8 512.2 564.1 511.3 566 509.4C567.9 507.5 568.8 505.2 568.8 502.6z" />
    <glyph glyph-name="location"
      unicode="&#xE013;"
      horiz-adv-x="600" d=" M300 569.1C207.1 569.1 131.8 493.8 131.8 400.9C131.8 232.7 300 30.8 300 30.8S468.2 232.7 468.2 400.9C468.2 493.8 392.9 569.1 300 569.1zM300 300C244.3 300 199.1 345.2 199.1 400.9S244.3 501.8 300 501.8S400.9 456.6 400.9 400.9S355.7 300 300 300z" />
    <glyph glyph-name="mail"
      unicode="&#xE014;"
      horiz-adv-x="600" d=" M520.3 104.2000000000001H79.7C52.7 104.2000000000001 30.7 126.1 30.7 153.2000000000001V446.9C30.7 473.9 52.6 495.9 79.7000000000001 495.9H520.3000000000001C547.3000000000001 495.9 569.3000000000001 474 569.3000000000001 446.9V153.1C569.3 126.1 547.3 104.2000000000001 520.3 104.2000000000001zM495.8 153.1L355.5 275.9000000000001L300 226.5000000000001L244.5 275.9000000000001L104.2 153.1C104.1 153.1 495.8 153.1 495.8 153.1zM79.7 177.6L217.4 300L79.7 422.4V177.6L79.7 177.6zM104.1 446.9L300 275.5L495.8 446.9C495.8 446.9 104.1 446.9 104.1 446.9zM520.3 422.4L382.6 300L520.3 177.6V422.4L520.3 422.4z" />
    <glyph glyph-name="menu"
      unicode="&#xE015;"
      horiz-adv-x="600" d=" M58 490.1H542V401.4H58V490.1zM58 339.9H542V256.2H58V339.9zM58 198.6H542V109.9H58V198.6z" />
    <glyph glyph-name="phone-circle"
      unicode="&#xE016;"
      horiz-adv-x="600" d=" M300 569.1C151.4 569.1 30.9 448.6 30.9 300C30.9 151.4 151.4 30.9 300 30.9C448.6 30.9 569.1 151.4 569.1 300C567.1 448.6 446.6 569.1 300 569.1M300 67.1C171.5 67.1 67.1 171.5 67.1 300C67.1 428.5 171.5 532.9 300 532.9C428.5 532.9 532.9 428.5 532.9 300C530.9 171.5 428.5 67.1 300 67.1z M373.3 219.2C369.3 225.2 363.3 235.3 355.2000000000001 235.3C347.2000000000001 235.3 337.1 229.3 329.1 223.3C299 205.2 244.8 339.8 254.8 359.8C258.8 371.8 288.9000000000001 365.8 295 377.9000000000001C297 383.9000000000001 295 392.0000000000001 293 398.0000000000001C291 412.1000000000001 291 424.1000000000001 289 438.2000000000001C287 450.2000000000001 287 454.3000000000001 285 456.3000000000001C279 462.3000000000001 260.9 462.3000000000001 252.9 462.3000000000001C246.9 462.3000000000001 236.8 458.3000000000001 224.8 448.2000000000001C212.8 438.2000000000001 206.6999999999999 430.1 200.6999999999999 418.1C194.6999999999999 402 194.6999999999999 384 194.6999999999999 363.9000000000001C194.6999999999999 349.8 194.6999999999999 335.8 196.6999999999999 323.7000000000001C202.6999999999999 279.5000000000001 224.8 235.3000000000001 250.8999999999999 201.2000000000001C256.8999999999999 191.2000000000001 267 183.1 277 173.1C303.1 153 323.2 132.9 357.3 139C373.4 141 383.4 145 387.4 151C393.4 157 403.5 171.1 403.5 175.1C405.5 177.1 407.5 179.1 401.5 187.1C389.4 199.1 379.3 211.2 373.3 219.2z" />
    <glyph glyph-name="pinterest"
      unicode="&#xE017;"
      horiz-adv-x="600" d=" M262.7 213C248.5 138.8 231.2 67.6 180 30.5C164.2 142.7000000000001 203.2 226.9 221.3 316.3C190.4 368.3 225 472.9 290.1 447.1C370.3 415.4000000000001 220.7000000000001 253.8 321.1 233.6C425.9000000000001 212.6 468.8 415.5 403.7000000000001 481.5C309.8 576.8000000000001 130.3000000000001 483.7 152.4 347.2000000000001C157.8 313.8000000000001 192.2 303.7000000000001 166.2 257.7000000000001C106.1 271.0000000000001 88.1 318.4000000000001 90.5 381.7000000000001C94.2 485.2 183.4 557.6 273 567.6C386.2 580.3000000000001 492.5 526 507.1 419.5000000000001C523.6 299.3000000000001 456 169.1 334.9 178.5C302.2 181.1 288.4 197.4 262.7 213z" />
    <glyph glyph-name="rss"
      unicode="&#xE018;"
      horiz-adv-x="600" d=" M178.8 107.1C178.8 86.9 171.7 69.7000000000001 157.6 55.6C143.5 41.5 126.3 34.4 106.1 34.4S68.7000000000001 41.5 54.6 55.6S33.4 86.9 33.4 107.1C33.4 127.3000000000001 40.5 144.5 54.6 158.6C68.7000000000001 172.7000000000001 85.9 179.8000000000001 106.1 179.8000000000001S143.5 172.7000000000001 157.6 158.6C171.7 144.5 178.8 127.3 178.8 107.1zM372.7 60.6C373.2 53.5 371.1 47.5 366.3 42.4C361.8 37.1 355.8 34.5 348.5 34.5H297.4C291.1 34.5 285.7 36.6 281.1 40.8C276.6 45 274 50.1999999999999 273.5 56.5C267.8999999999999 114.3 244.7 163.7000000000001 203.5999999999999 204.7C162.5999999999999 245.7 113.1999999999999 269 55.3999999999999 274.6C49.0999999999999 275.1 43.7999999999998 277.6 39.6999999999998 282.2000000000001C35.4999999999998 286.8000000000001 33.4999999999998 292.2000000000001 33.3999999999999 298.5000000000001V349.6000000000001C33.3999999999999 356.9000000000001 35.9999999999999 362.8000000000001 41.2999999999998 367.4000000000001C45.5999999999998 371.7000000000001 50.9999999999999 373.8000000000001 57.5999999999998 373.8000000000001H59.4999999999998C99.8999999999998 370.5000000000001 138.4999999999998 360.4000000000001 175.3999999999998 343.3000000000001S244.8999999999998 303.3000000000001 273.4999999999998 274.6000000000001C302.2999999999998 246.1000000000001 325.1999999999998 213.4000000000001 342.1999999999998 176.5000000000001C359.2 139.6 369.4 100.9 372.7 60.6zM566.5 59.8C567 53 564.7 47.0999999999999 559.7 42C555.2 36.9 549.4 34.4 542.3 34.4H488.2C481.6 34.4 476 36.6 471.4 41C466.7 45.4 464.3 50.8 464 57.1C461 111.4 448.2 162.9 425.8 211.8S374 303.1 338 339C302 375 259.6 404.2 210.8 426.7S110.4 462 56.1 465.3C49.8000000000001 465.6 44.4 468 40 472.7S33.4 482.9 33.4 489.2V543.3C33.4 550.4 35.9 556.2 41 560.7C45.5 565.2 51.1 567.5 57.7000000000001 567.5H58.8000000000001C124.9000000000001 564.2 188.2000000000001 549.1 248.7000000000001 522.1C309.2000000000001 495.1 362.9000000000001 458 409.8000000000001 410.8C457.0000000000001 363.9000000000001 494.1 310.2000000000001 521.1 249.7000000000001S563.3 125.9 566.5 59.8L566.5 59.8z" />
    <glyph glyph-name="search"
      unicode="&#xE019;"
      horiz-adv-x="600" d=" M404.2 274.8C418.7 300.9 427 331 427 363C427 463.5 345.5 545 245 545S63 463.5 63 363S144.5 181 245 181C278.6 181 310 190.1 337 206L485 58L553 126L404.2 274.8zM293.3 249.7C278.5 243.4 262.1 239.9 245 239.9C177 239.9 121.8 295 121.8 363.1S177 486.2 245 486.2S368.2 431 368.2 363C368.2 347.5 365.3 332.6 360.1 319C348.1 287.8 323.9 262.7 293.3 249.7z" />
    <glyph glyph-name="star"
      unicode="&#xE01A;"
      horiz-adv-x="600" d=" M300 145.1L466.5 44.6L422.3 234L569.4 361.5L375.7000000000001 377.9L300 556.5L224.3 377.9L30.6 361.5L177.7 234L133.5 44.6L300 145.1z" />
    <glyph glyph-name="twitter"
      unicode="&#xE01B;"
      horiz-adv-x="600" d=" M569.2 466.8C553.9 444.5 535.5 425.5 513.9 409.7C514.1 406.5 514.2 401.7 514.2 395.4C514.2 365.8 509.9 336.2 501.2 306.7S479.4 248.9 461.7 221.8C444 194.6999999999999 423 170.6999999999999 398.7 149.9C374.3 129.1 344.9 112.4 310.5 100S239.3 81.4 200.1 81.4C138.4 81.4 81.9 97.9 30.6 131C38.6 130.1 47.5 129.6 57.3000000000001 129.6C108.6000000000001 129.6 154.2000000000001 145.3000000000001 194.3000000000001 176.7000000000001C170.4000000000001 177.2000000000001 149.0000000000001 184.5 130.1000000000001 198.7000000000001C111.2000000000001 212.9 98.2000000000001 231.1 91.2000000000001 253.2000000000001C98.7000000000001 252.1 105.7000000000001 251.5000000000001 112.0000000000001 251.5000000000001C121.8000000000001 251.5000000000001 131.5000000000001 252.8000000000001 141.0000000000001 255.3000000000001C115.5000000000001 260.5000000000001 94.4000000000001 273.2000000000001 77.6000000000001 293.4000000000001C60.9000000000001 313.6000000000001 52.5000000000001 337.0000000000001 52.5000000000001 363.6000000000001V365.0000000000001C68.0000000000001 356.3000000000001 84.6000000000001 351.7000000000001 102.4000000000001 351.0000000000001C87.4000000000001 361.0000000000001 75.4000000000001 374.1000000000001 66.5000000000001 390.3000000000001C57.6000000000001 406.5000000000001 53.2000000000002 424.0000000000001 53.2000000000002 442.9000000000001C53.2000000000002 462.9000000000001 58.2000000000002 481.5000000000001 68.2000000000002 498.6000000000001C95.8000000000002 464.7 129.3000000000002 437.5000000000001 168.8000000000002 417.1000000000001S250.6000000000002 385.4000000000001 295.7000000000002 383.1000000000001C293.9000000000002 391.8000000000001 293.0000000000002 400.2000000000001 293.0000000000002 408.4000000000001C293.0000000000002 438.9000000000001 303.8000000000002 465.0000000000001 325.3000000000002 486.5000000000001S372.9000000000002 518.8000000000001 403.4000000000002 518.8000000000001C435.3000000000002 518.8000000000001 462.2000000000002 507.2 484.0000000000002 483.9000000000001C508.8000000000002 488.7 532.2000000000002 497.6 554.0000000000002 510.6C545.6000000000001 484.4000000000001 529.4000000000002 464.1 505.5000000000002 449.8000000000001C526.9 451.9 548.1 457.6 569.2 466.8L569.2 466.8z" />
    <glyph glyph-name="wordpress"
      unicode="&#xE01C;"
      horiz-adv-x="600" d=" M46.8 300C46.8 335.8 54.1999999999999 370.1 68.9 403.1L189.7 72.2000000000001C146.7 93 112.1 123.9000000000001 86 164.7000000000001C59.8 205.5 46.8 250.6 46.8 300L46.8 300zM470.9 312.8C470.9 308.6 470.6 304.4000000000001 470.1 300.1C469.6 295.8 468.5 290.4000000000001 466.8 283.8C465.2 277.2 463.9 272.4000000000001 463 269.3C462.1 266.2 460.2 259.7 457.2 249.9000000000001C454.2 240.0000000000001 452.3 233.7000000000001 451.4 230.8L426.4000000000001 146.5L334.9000000000001 418.5C345 419.2 354.7000000000001 420 363.9000000000001 421.1C368.1 421.5 370.9000000000001 423.6 372.5 427.2000000000001C374 430.8000000000001 373.8000000000001 434.2000000000001 371.7000000000001 437.4000000000001C369.6 440.6 366.5 442.1 362.3 441.8000000000001L294.8 438.5000000000001C278.3 438.7000000000001 256.2 439.8000000000001 228.3 441.8000000000001C225.7 442.0000000000001 223.4 441.5000000000001 221.6 440.2000000000001C219.7000000000001 438.9000000000001 218.5 437.2000000000001 217.8 435.3000000000001C217.1 433.3000000000001 217 431.3000000000001 217.3 429.2000000000001S218.6 425.3000000000001 220.3 423.8000000000001S224.1 421.4000000000001 226.7 421.2000000000001L253 418.6L292.5 310.6L237.2 144.7000000000001L145 418.6C155.1 419.3 164.8 420.1 174 421.2000000000001C178.2 421.6 181 423.7000000000001 182.6 427.3000000000001C184.1 430.9000000000001 183.9 434.3000000000001 181.8 437.5000000000001C179.7 440.7000000000001 176.6 442.2000000000001 172.4 441.9000000000001L104.9 438.6000000000001C103.4 438.6000000000001 100.8 438.7000000000001 97.3 438.8000000000001C93.8 438.9000000000001 90.9 439.0000000000001 88.7 439.0000000000001C111.8 474.1 141.9 501.9000000000001 179.1 522.5S256.6 553.3000000000001 300.1 553.3000000000001C332.4000000000001 553.3000000000001 363.2000000000001 547.5 392.5 535.9000000000001C421.8000000000001 524.3000000000001 448 507.9000000000001 471 486.8000000000001H467.7C455.6 486.8000000000001 445.5 482.4000000000001 437.4000000000001 473.5000000000001S425.2000000000001 454.1 425.2000000000001 442.1C425.2000000000001 439.5000000000001 425.4000000000001 436.8000000000001 425.9000000000001 434.2000000000001C426.3000000000001 431.6 426.8000000000001 429.2000000000001 427.2000000000001 427.1C427.6 425 428.5000000000001 422.5 429.8000000000001 419.5C431.1 416.5 432.1 414.2 432.8000000000001 412.6C433.5 411 434.8000000000001 408.5 436.7000000000001 405.2000000000001C438.7000000000001 401.9000000000001 440.0000000000001 399.6 440.8000000000001 398.3000000000001C441.6 397.0000000000001 443.2000000000001 394.4000000000001 445.6 390.4000000000001C448.0000000000001 386.4000000000001 449.5000000000001 383.9000000000001 450.2000000000001 382.8000000000001C464.1 359.1 471 335.9 470.9 312.8L470.9 312.8zM304.3 277.9L382.3 64.9C382.5 63.6 383.1 62.4 383.9 61.3C356.2000000000001 51.5999999999999 328.3 46.8 299.9 46.8C275.3 46.8 251.5 50.3 228.4 57.3L304.3 277.9zM521.9 421.5C542.7 383.3 553.2 342.8 553.2 300C553.2 254.1 541.8 211.8 519 173.1S465.6 103.8000000000001 427.1 81.4L504.5 304.6C517.5 341.7 523.9 372 523.9 395.5C523.9 404.7 523.2 413.3 521.9 421.5L521.9 421.5zM300 595C340 595 378.1 587.2 414.6 571.6S482.4 535.1 508.8 508.7C535.2 482.4 556.1 451 571.7 414.5S595 339.9 595 300C595 260.1 587.2 221.9 571.6 185.4S535 117.6 508.7 91.1999999999999C482.4 64.9 451 43.9 414.5 28.3C378.1 12.8 339.9 5 300 5C260.1 5 221.9 12.8 185.4 28.4C148.9 44 117.6 64.9 91.2 91.3C64.9 117.5999999999999 43.9 149 28.3 185.5C12.8 221.9 5 260.1 5 300S12.8 378.1 28.4 414.6C44 451 64.9 482.4 91.3 508.8S149 556.1 185.5 571.7S260 595 300 595zM300 18.5C338 18.5 374.4 26 409.2 40.9C444 55.8 474 75.9 499.1 101C524.2 126.1 544.3 156.1 559.2 190.9S581.5 262 581.5 300S574 374.4 559.1 409.2S524.2 474 499 499.1S443.9 544.3 409.1 559.2S338 581.5 300 581.5S225.6 574 190.8 559.1S126.1 524.1 100.9 499C75.7 473.9 55.6999999999999 443.9 40.8 409.1S18.5 338 18.5 300C18.5 262 25.9 225.6 40.9 190.8S75.9 126 101 100.9C126.1 75.8 156.1 55.6999999999999 190.9 40.8C225.6 25.9 262 18.5 300 18.5z" />
    <glyph glyph-name="youtube"
      unicode="&#xE01D;"
      horiz-adv-x="600" d=" M366.3 186.3V117.4C366.3 102.8 362.0999999999999 95.5 353.5999999999999 95.5C348.5999999999999 95.5 343.7 97.9 338.8999999999999 102.7000000000001V201C343.6999999999998 205.8 348.5999999999999 208.2000000000001 353.5999999999999 208.2000000000001C362.1 208.2000000000001 366.3 200.9 366.3 186.3zM476.8 186V171H447.4000000000001V186C447.4000000000001 200.8 452.3 208.2000000000001 462.1 208.2000000000001C471.9 208.2000000000001 476.8 200.8 476.8 186zM161.1 257.2000000000001H196.1V287.9000000000001H94.2000000000001V257.2000000000001H128.5V71.3000000000001H161.2000000000001L161.1 257.2000000000001L161.1 257.2000000000001zM255.2000000000001 71.3H284.3000000000001V232.7000000000001H255.2000000000001V109.2000000000001C248.7000000000001 100.1 242.5 95.5 236.6 95.5C232.7000000000001 95.5 230.4 97.8 229.7000000000001 102.4C229.5 103.1 229.4000000000001 106.9 229.4000000000001 113.8V232.7000000000001H200.3000000000001V105C200.3000000000001 94.3 201.2000000000001 86.4 202.9000000000001 81.1C205.5000000000001 73 211.8000000000001 69 221.8000000000001 69C232.3000000000001 69 243.4000000000001 75.6 255.1 88.9L255.2000000000001 71.3L255.2000000000001 71.3zM395.4 119.6V184C395.4 199.9 394.4 210.7000000000001 392.5 216.4C388.8 228.6 381.1 234.7 369.3 234.7C358.4 234.7 348.3 228.8 338.9 217.0999999999999V287.9999999999999H309.8V71.3999999999999H338.9V87C348.7 75 358.8 69 369.3 69C381.1 69 388.8 75 392.5 87C394.4 92.9 395.4 103.7000000000001 395.4 119.6L395.4 119.6zM505.9 122.9V127.1H476.2C476.2 116 476 109.3000000000001 475.6 107.2000000000001C474.1 99.4000000000001 469.7 95.4000000000001 462.4999999999999 95.4000000000001C452.4999999999999 95.4000000000001 447.5 102.9000000000001 447.5 117.9000000000001V146.3000000000001H505.9999999999999V179.9000000000001C505.9999999999999 197.1000000000001 503.1 209.7000000000001 497.1999999999999 217.8000000000001C488.6999999999999 228.9000000000001 477.1999999999999 234.5000000000001 462.5999999999999 234.5000000000001C447.7999999999999 234.5000000000001 436.0999999999999 228.9000000000001 427.5999999999999 217.8000000000001C421.4999999999999 209.7000000000001 418.3999999999999 197.1 418.3999999999999 179.9000000000001V123.4000000000001C418.3999999999999 106.2000000000001 421.5999999999999 93.6000000000001 427.8999999999999 85.5000000000001C436.3999999999999 74.4000000000001 448.0999999999999 68.8000000000001 463.1999999999999 68.8000000000001C478.8999999999999 68.8000000000001 490.5999999999999 74.6 498.4999999999999 86.1C502.3999999999999 92 504.6999999999999 97.9 505.3999999999999 103.7000000000001C505.6 105.9 505.8 112.2000000000001 505.9 122.9L505.9 122.9zM307.2000000000001 421.2000000000001V489.8000000000001C307.2000000000001 504.8000000000001 302.5 512.3000000000001 293.1 512.3000000000001S279 504.8000000000001 279 489.8000000000001V421.2000000000001C279 405.9000000000001 283.7000000000001 398.3000000000001 293.1 398.3000000000001S307.2000000000001 406 307.2000000000001 421.2000000000001zM542.1 175.8C542.1 124.8 539.3 86.6999999999999 533.6 61.4C530.5 48.5 524.2 37.8 514.7 29C505.1 20.3 494.0000000000001 15.3 481.4 14C441.3 9.4 380.9000000000001 7.1 300.1 7.1S158.8 9.4 118.8 14C106.1999999999999 15.3 95 20.3 85.3 29C75.5999999999999 37.7 69.3 48.5 66.5 61.4C60.8 85.8 58 123.9 58 175.8C58 226.8 60.8 264.9 66.5 290.2C69.6 303.0999999999999 75.9 313.8 85.4 322.5999999999999S106.1999999999999 336.3999999999999 119 337.8999999999999C158.9 342.2999999999999 219.2000000000001 344.3999999999999 300 344.3999999999999S441.3 342.1999999999998 481.3 337.8999999999999C493.9 336.3999999999999 505.1 331.2999999999999 514.8 322.5999999999999C524.5 313.8999999999999 530.8 303.0999999999999 533.6 290.2C539.3 265.8 542.1 227.7000000000001 542.1 175.8L542.1 175.8zM216 592.8H249.3L209.8 462.4V373.9H177.0999999999999V462.4C173.9999999999999 478.5 167.3999999999999 501.6 157.1999999999999 531.7C149.0999999999999 554.0999999999999 142.0999999999999 574.5 135.9999999999999 592.8H170.5999999999999L193.8 506.9L216 592.8zM336.9 484V426.8C336.9 409.2 333.8 396.3 327.7 388.2C319.5999999999999 377.0999999999999 308.0999999999999 371.4999999999999 293.0999999999999 371.4999999999999C278.4999999999999 371.4999999999999 267.0999999999999 377.0999999999999 258.8 388.2C252.7 396.4999999999999 249.5999999999999 409.3 249.5999999999999 426.8V484C249.5999999999999 501.4 252.7 514.2 258.8 522.2C267.0999999999999 533.3 278.5 538.9 293.0999999999999 538.9C308.0999999999999 538.9 319.7 533.3 327.7 522.2C333.9 514.1 336.9 501.4 336.9 484zM446.4 536.9V373.9H416.7V391.9C405.2 378.4 393.9 371.6 383.1 371.6C373.0999999999999 371.6 366.5999999999999 375.6 363.8 383.7000000000001C362.0999999999999 388.9000000000001 361.2 397.1 361.2 408.2000000000001V536.9H390.8999999999999V417C390.8999999999999 409.8 391 406 391.2 405.6C391.8999999999999 400.8000000000001 394.0999999999999 398.4 398.0999999999999 398.4C403.9999999999999 398.4 410.2 403.1 416.7 412.5V536.9L446.4 536.9L446.4 536.9z" />
  </font>
</defs>
</svg>
