<?xml version="1.0" encoding="utf-8"?>
<!-- Generator: Adobe Illustrator 18.1.1, SVG Export Plug-In . SVG Version: 6.00 Build 0)  -->
<svg version="1.1" id="Layer_1" xmlns="http://www.w3.org/2000/svg" xmlns:xlink="http://www.w3.org/1999/xlink" x="0px" y="0px"
	 width="600px" height="600px" viewBox="-583 97 600 600" enable-background="new -583 97 600 600" xml:space="preserve">
<path fill="#444444" d="M-404.2,589.9c0,20.2-7.1,37.4-21.2,51.5c-14.1,14.1-31.3,21.2-51.5,21.2s-37.4-7.1-51.5-21.2
	s-21.2-31.3-21.2-51.5c0-20.2,7.1-37.4,21.2-51.5c14.1-14.1,31.3-21.2,51.5-21.2s37.4,7.1,51.5,21.2
	C-411.3,552.5-404.2,569.7-404.2,589.9z M-210.3,636.4c0.5,7.1-1.6,13.1-6.4,18.2c-4.5,5.3-10.5,7.9-17.8,7.9h-51.1
	c-6.3,0-11.7-2.1-16.3-6.3c-4.5-4.2-7.1-9.4-7.6-15.7c-5.6-57.8-28.8-107.2-69.9-148.2c-41-41-90.4-64.3-148.2-69.9
	c-6.3-0.5-11.6-3-15.7-7.6c-4.2-4.6-6.2-10-6.3-16.3v-51.1c0-7.3,2.6-13.2,7.9-17.8c4.3-4.3,9.7-6.4,16.3-6.4h1.9
	c40.4,3.3,79,13.4,115.9,30.5s69.5,40,98.1,68.7c28.8,28.5,51.7,61.2,68.7,98.1C-223.8,557.4-213.6,596.1-210.3,636.4z M-16.5,637.2
	c0.5,6.8-1.8,12.7-6.8,17.8c-4.5,5.1-10.3,7.6-17.4,7.6h-54.1c-6.6,0-12.2-2.2-16.8-6.6c-4.7-4.4-7.1-9.8-7.4-16.1
	c-3-54.3-15.8-105.8-38.2-154.7S-209,393.9-245,358c-36-36-78.4-65.2-127.2-87.7s-100.4-35.3-154.7-38.6c-6.3-0.3-11.7-2.7-16.1-7.4
	s-6.6-10.2-6.6-16.5v-54.1c0-7.1,2.5-12.9,7.6-17.4c4.5-4.5,10.1-6.8,16.7-6.8h1.1c66.1,3.3,129.4,18.4,189.9,45.4
	c60.5,27,114.2,64.1,161.1,111.3c47.2,46.9,84.3,100.6,111.3,161.1S-19.7,571.1-16.5,637.2L-16.5,637.2z"/>
</svg>
